<svg xmlns="http://www.w3.org/2000/svg" xml:space="preserve" width="1000" height="1000" fill-rule="evenodd" stroke-linejoin="round" stroke-width="28.222" preserveAspectRatio="xMidYMid" version="1.2">
  <defs class="ClipPathGroup">
    <clipPath id="a" clipPathUnits="userSpaceOnUse">
      <path d="M-13780.442-11120.356h26000v26000h-26000z"/>
    </clipPath>
  </defs>
  <g stroke="null" class="SlideGroup">
    <g class="Slide" clip-path="url(#a)">
      <g class="Page">
        <g class="com.sun.star.drawing.CustomShape">
          <path fill="none" d="M93.977 66.475h845.745v861.998H93.977z" class="BoundingBox"/>
          <path fill="#729FCF" d="M94.012 228.109c0-9.445 2.431-18.746 7.082-26.933 4.65-8.188 11.31-14.975 19.343-19.715a51.99 51.99 0 0 1 26.425-7.218h687.054v-53.866h.035c0-9.444 2.431-18.745 7.082-26.933 4.65-8.188 11.31-14.975 19.343-19.715a51.99 51.99 0 0 1 26.425-7.218 51.99 51.99 0 0 1 26.425 7.218c8.034 4.74 14.693 11.527 19.344 19.715 4.65 8.188 7.081 17.488 7.081 26.933l-.035 646.39.035.036c0 9.445-2.43 18.746-7.081 26.933-4.651 8.188-11.31 14.975-19.344 19.715a51.99 51.99 0 0 1-26.425 7.218l-687.089-.036v53.902c0 9.445-2.43 18.745-7.081 26.933-4.651 8.188-11.31 14.975-19.344 19.715a51.99 51.99 0 0 1-26.425 7.218 51.99 51.99 0 0 1-26.425-7.218c-8.033-4.74-14.692-11.527-19.343-19.715-4.65-8.187-7.082-17.488-7.082-26.933V228.11z"/>
          <path fill="none" stroke="#3465A4" d="M94.012 228.109c0-9.445 2.431-18.746 7.082-26.933 4.65-8.188 11.31-14.975 19.343-19.715a51.99 51.99 0 0 1 26.425-7.218h687.054v-53.866h.035c0-9.444 2.431-18.745 7.082-26.933 4.65-8.188 11.31-14.975 19.343-19.715a51.99 51.99 0 0 1 26.425-7.218 51.99 51.99 0 0 1 26.425 7.218c8.034 4.74 14.693 11.527 19.344 19.715 4.65 8.188 7.081 17.488 7.081 26.933l-.035 646.39.035.036c0 9.445-2.43 18.746-7.081 26.933-4.651 8.188-11.31 14.975-19.344 19.715a51.99 51.99 0 0 1-26.425 7.218l-687.089-.036v53.902c0 9.445-2.43 18.745-7.081 26.933-4.651 8.188-11.31 14.975-19.344 19.715a51.99 51.99 0 0 1-26.425 7.218 51.99 51.99 0 0 1-26.425-7.218c-8.033-4.74-14.692-11.527-19.343-19.715-4.65-8.187-7.082-17.488-7.082-26.933V228.11z"/>
          <path fill="#5B7FA6" d="M146.862 228.109a27.35 27.35 0 0 1 3.559-13.467 26.16 26.16 0 0 1 9.654-9.84 25.965 25.965 0 0 1 13.212-3.626c4.651 0 9.196 1.257 13.213 3.627 4.017 2.334 7.364 5.745 9.69 9.84a27.695 27.695 0 0 1 3.522 13.466c0 9.48-2.43 18.745-7.081 26.933-4.651 8.187-11.31 15.01-19.344 19.715a51.99 51.99 0 0 1-26.425 7.218v-53.866z"/>
          <path fill="none" stroke="#3465A4" d="M146.862 228.109a27.35 27.35 0 0 1 3.559-13.467 26.16 26.16 0 0 1 9.654-9.84 25.965 25.965 0 0 1 13.212-3.626c4.651 0 9.196 1.257 13.213 3.627 4.017 2.334 7.364 5.745 9.69 9.84a27.695 27.695 0 0 1 3.522 13.466c0 9.48-2.43 18.745-7.081 26.933-4.651 8.187-11.31 15.01-19.344 19.715a51.99 51.99 0 0 1-26.425 7.218v-53.866z"/>
          <path fill="#5B7FA6" d="M886.766 120.377h.035c0 4.74-2.43 9.373-7.082 13.466-4.65 4.094-11.31 7.506-19.343 9.876-8.033 2.334-17.159 3.59-26.425 3.59v-26.932c0-9.444 2.431-18.745 7.082-26.933 4.65-8.188 11.31-14.975 19.343-19.715a51.99 51.99 0 0 1 26.425-7.218 51.99 51.99 0 0 1 26.425 7.218c8.034 4.74 14.693 11.527 19.344 19.715 4.65 8.188 7.081 17.488 7.081 26.933 0 9.444-2.43 18.745-7.081 26.933-4.651 8.188-11.31 14.975-19.344 19.715a51.99 51.99 0 0 1-26.425 7.218l-.035-53.866z"/>
          <path fill="none" stroke="#3465A4" d="M886.766 120.377h.035c0 4.74-2.43 9.373-7.082 13.466-4.65 4.094-11.31 7.506-19.343 9.876-8.033 2.334-17.159 3.59-26.425 3.59v-26.932c0-9.444 2.431-18.745 7.082-26.933 4.65-8.188 11.31-14.975 19.343-19.715a51.99 51.99 0 0 1 26.425-7.218 51.99 51.99 0 0 1 26.425 7.218c8.034 4.74 14.693 11.527 19.344 19.715 4.65 8.188 7.081 17.488 7.081 26.933 0 9.444-2.43 18.745-7.081 26.933-4.651 8.188-11.31 14.975-19.344 19.715a51.99 51.99 0 0 1-26.425 7.218l-.035-53.866z"/>
          <path fill="#5B7FA6" d="M146.862 281.975a51.99 51.99 0 0 1-26.425-7.218c-8.033-4.705-14.692-11.528-19.343-19.715-4.65-8.188-7.082-17.453-7.082-26.933l52.85 53.866z"/>
          <path fill="none" stroke="#3465A4" d="M146.862 281.975a51.99 51.99 0 0 1-26.425-7.218c-8.033-4.705-14.692-11.528-19.343-19.715-4.65-8.188-7.082-17.453-7.082-26.933"/>
          <path fill="#5B7FA6" d="M886.766 174.243h-52.85 52.85z"/>
          <path fill="none" stroke="#3465A4" d="M886.766 174.243h-52.85"/>
          <path fill="#5B7FA6" d="M199.712 228.109v646.39-646.39z"/>
          <path fill="none" stroke="#3465A4" d="M199.712 228.109v646.39"/>
        </g>
      </g>
    </g>
  </g>
</svg>
